<svg width="94" height="94" viewBox="0 0 94 94" fill="none" xmlns="http://www.w3.org/2000/svg">
<g clip-path="url(#clip0_102_2095)">
<path d="M61.6875 -8.13797e-05C62.4831 -8.13797e-05 63.1715 0.290609 63.7529 0.871989L93.1279 30.247C93.7093 30.8284 94 31.5168 94 32.3124C94 33.108 93.7093 33.7965 93.1279 34.3778L81.9746 45.5312C82.7396 46.2961 83.4893 47.0305 84.2236 47.7343C84.958 48.4381 85.6006 49.1571 86.1514 49.8915C86.7021 50.6259 87.1611 51.4521 87.5283 52.37C87.8955 53.288 88.0791 54.3131 88.0791 55.4452C88.0791 56.6692 87.8496 57.832 87.3906 58.9335C86.9316 60.0351 86.3044 60.9989 85.5088 61.8251C84.7132 62.6513 83.7799 63.3092 82.709 63.7987C81.638 64.2883 80.4906 64.5484 79.2666 64.579C79.2054 65.8336 78.9453 66.981 78.4863 68.0214C78.0273 69.0618 77.4154 69.9797 76.6504 70.7753C75.8854 71.5709 74.9674 72.1982 73.8965 72.6572C72.8255 73.1161 71.6781 73.3609 70.4541 73.3915C70.4235 74.6155 70.1634 75.7629 69.6738 76.8339C69.1842 77.9049 68.5264 78.8381 67.7002 79.6337C66.874 80.4293 65.9102 81.0719 64.8086 81.5614C63.707 82.051 62.5443 82.2805 61.3203 82.2499C60.3411 82.2499 59.3467 82.0816 58.3369 81.745C58.0003 82.6936 57.5566 83.5504 57.0059 84.3154C56.4551 85.0803 55.7819 85.7535 54.9863 86.3349C54.1908 86.9163 53.3493 87.3599 52.4619 87.6659C51.5745 87.9719 50.6107 88.1249 49.5703 88.1249C48.7747 88.1249 48.071 88.0637 47.459 87.9413C46.847 87.8189 46.2809 87.6047 45.7607 87.2988C45.2406 86.9928 44.7204 86.6562 44.2002 86.289C43.68 85.9218 43.1445 85.4781 42.5938 84.9579C41.5228 85.9371 40.4824 86.7021 39.4727 87.2529C38.4629 87.8036 37.1777 88.0943 35.6172 88.1249C34.3932 88.1249 33.2305 87.8954 32.1289 87.4364C31.0273 86.9775 30.0635 86.3502 29.2373 85.5546C28.4111 84.759 27.7533 83.8258 27.2637 82.7548C26.7741 81.6838 26.514 80.5211 26.4834 79.2665C25.29 79.2359 24.1579 78.9911 23.0869 78.5322C22.016 78.0732 21.0827 77.4459 20.2871 76.6503C19.4915 75.8547 18.8643 74.9215 18.4053 73.8505C17.9463 72.7795 17.7015 71.6474 17.6709 70.454C16.4469 70.4234 15.3148 70.1786 14.2744 69.7197C13.234 69.2607 12.3161 68.6334 11.5205 67.8378C10.7249 67.0422 10.0977 66.109 9.63867 65.038C9.17969 63.967 8.9196 62.8349 8.8584 61.6415C7.60384 61.6109 6.44108 61.3508 5.37012 60.8612C4.29915 60.3717 3.36589 59.7138 2.57031 58.8876C1.77474 58.0614 1.14746 57.1129 0.688477 56.0419C0.229492 54.9709 0 53.8082 0 52.5536C0 51.2991 0.229492 50.121 0.688477 49.0195C1.14746 47.9179 1.82064 46.9234 2.70801 46.036L7.57324 41.1249L0.87207 34.3778C0.29069 33.7965 0 33.108 0 32.3124C0 31.5168 0.29069 30.8284 0.87207 30.247L30.2471 0.871989C30.8285 0.290609 31.5169 -8.13797e-05 32.3125 -8.13797e-05C33.1081 -8.13797e-05 33.7965 0.290609 34.3779 0.871989L40.4365 6.93058C40.8343 6.80819 41.5993 6.5481 42.7314 6.15031C43.8636 5.75252 45.1947 5.30884 46.7246 4.81925C48.2546 4.32967 49.8304 3.79419 51.4521 3.21281C53.0739 2.63143 54.6344 2.11125 56.1338 1.65226C57.6331 1.19328 58.8724 0.795492 59.8516 0.458903C60.8307 0.122314 61.4427 -0.0306803 61.6875 -8.13797e-05ZM14.3203 44.0624C13.4329 44.0624 12.668 44.3837 12.0254 45.0263L6.83887 50.1669C6.19629 50.8095 5.875 51.5898 5.875 52.5077C5.875 53.4257 6.18099 54.1907 6.79297 54.8027C7.40495 55.4146 8.18522 55.7359 9.13379 55.7665C10.0824 55.7665 10.8626 55.4605 11.4746 54.8486L16.6611 49.7079C17.3037 49.0653 17.625 48.2851 17.625 47.3671C17.625 46.4491 17.3037 45.6689 16.6611 45.0263C16.0186 44.3837 15.2383 44.0624 14.3203 44.0624ZM23.1328 52.8749C22.7044 52.8749 22.2913 52.9514 21.8936 53.1044C21.4958 53.2574 21.1286 53.5022 20.792 53.8388L15.6514 59.0253C15.0088 59.6679 14.6875 60.4482 14.6875 61.3661C14.6875 62.2535 15.0088 63.0032 15.6514 63.6152C16.2939 64.2271 17.0742 64.5484 17.9922 64.579C18.4206 64.579 18.8337 64.5025 19.2314 64.3495C19.6292 64.1965 19.9964 63.967 20.333 63.6611L25.4736 58.4745C26.1162 57.832 26.4375 57.067 26.4375 56.1796C26.4375 55.2616 26.1162 54.4814 25.4736 53.8388C24.8311 53.1962 24.0508 52.8749 23.1328 52.8749ZM31.9453 61.6874C31.0579 61.6874 30.293 62.0087 29.6504 62.6513L24.4639 67.7919C23.8213 68.4345 23.5 69.2148 23.5 70.1327C23.5 71.0507 23.806 71.8157 24.418 72.4277C25.0299 73.0396 25.8102 73.3609 26.7588 73.3915C27.7074 73.3915 28.4876 73.0855 29.0996 72.4736L34.2861 67.3329C34.9287 66.6904 35.25 65.9101 35.25 64.9921C35.25 64.0741 34.9287 63.2939 34.2861 62.6513C33.6436 62.0087 32.8633 61.6874 31.9453 61.6874ZM32.3125 78.9911C32.3125 79.8785 32.6338 80.6282 33.2764 81.2402C33.9189 81.8521 34.6992 82.1734 35.6172 82.204C36.0456 82.204 36.4587 82.1275 36.8564 81.9745C37.2542 81.8215 37.6214 81.592 37.958 81.2861L43.0986 76.0995C43.7412 75.457 44.0625 74.692 44.0625 73.8046C44.0625 72.8866 43.7412 72.1064 43.0986 71.4638C42.4561 70.8212 41.6758 70.4999 40.7578 70.4999C40.3294 70.4999 39.9163 70.5764 39.5186 70.7294C39.1208 70.8824 38.7536 71.1272 38.417 71.4638L33.2764 76.6503C32.6338 77.2929 32.3125 78.0732 32.3125 78.9911ZM78.9453 58.7499C79.8327 58.7499 80.5977 58.4286 81.2402 57.7861C81.8828 57.1435 82.2194 56.3785 82.25 55.4911C82.25 54.5732 81.9287 53.7929 81.2861 53.1503L52.2783 24.0966C52.1865 24.0048 52.0335 23.9283 51.8193 23.8671C51.6051 23.8059 51.391 23.7447 51.1768 23.6835C50.9626 23.6223 50.7331 23.5764 50.4883 23.5458C50.2435 23.5152 50.0599 23.4999 49.9375 23.4999C49.1419 23.4999 48.3923 23.6529 47.6885 23.9589C46.9847 24.2649 46.3574 24.678 45.8066 25.1982C45.2559 25.7183 44.8275 26.3456 44.5215 27.08C44.2155 27.8144 44.0625 28.5793 44.0625 29.3749C44.0625 30.9967 43.7565 32.5113 43.1445 33.9189C42.5326 35.3264 41.6911 36.581 40.6201 37.6825C39.5492 38.7841 38.3099 39.6256 36.9023 40.2069C35.4948 40.7883 33.9648 41.0943 32.3125 41.1249C31.0885 41.1249 29.9411 40.8954 28.8701 40.4364C27.7992 39.9775 26.8659 39.3502 26.0703 38.5546C25.2747 37.759 24.6475 36.8258 24.1885 35.7548C23.7295 34.6838 23.5 33.5364 23.5 32.3124C23.5 31.578 23.5765 30.7672 23.7295 29.8798C23.8825 28.9924 24.1273 28.1969 24.4639 27.4931L33.0469 10.2812C33.3223 9.79158 33.7354 9.3938 34.2861 9.08781L32.3125 7.11418L7.06836 32.3124L13.2646 38.4628C14.6416 38.3098 15.9421 38.4016 17.166 38.7382C18.39 39.0748 19.4609 39.6409 20.3789 40.4364C21.2969 41.232 22.0312 42.1959 22.582 43.328C23.1328 44.4602 23.4235 45.7301 23.4541 47.1376C24.6781 47.1988 25.8255 47.4436 26.8965 47.872C27.9674 48.3004 28.8854 48.9124 29.6504 49.7079C30.4154 50.5035 31.0426 51.4215 31.5322 52.4618C32.0218 53.5022 32.2666 54.665 32.2666 55.9501C33.4906 56.0113 34.638 56.2561 35.709 56.6845C36.7799 57.1129 37.6979 57.7249 38.4629 58.5204C39.2279 59.316 39.8551 60.234 40.3447 61.2743C40.8343 62.3147 41.0791 63.4775 41.0791 64.7626C42.3337 64.8238 43.4964 65.0839 44.5674 65.5429C45.6383 66.0019 46.5716 66.6292 47.3672 67.4247C48.1628 68.2203 48.79 69.1689 49.249 70.2704C49.708 71.372 49.9375 72.5501 49.9375 73.8046C49.9375 75.1816 49.6621 76.4667 49.1113 77.6601C48.5605 78.8534 47.765 79.8938 46.7246 80.7812C47.1836 81.2096 47.5967 81.5614 47.9639 81.8368C48.3311 82.1122 48.8665 82.2499 49.5703 82.2499C50.4577 82.2499 51.2227 81.9286 51.8652 81.2861C52.5078 80.6435 52.8444 79.8785 52.875 78.9911C52.875 78.0732 52.5537 77.2929 51.9111 76.6503L56.042 72.4736L59.0254 75.4111C59.7292 76.0536 60.4941 76.3749 61.3203 76.3749C62.2077 76.3749 62.9727 76.0536 63.6152 75.4111C64.2578 74.7685 64.5944 74.0035 64.625 73.1161C64.625 72.1982 64.3037 71.4179 63.6611 70.7753L58.4746 65.5888L62.6514 61.4579L67.792 66.5986C68.4346 67.2411 69.2148 67.5624 70.1328 67.5624C71.0508 67.5624 71.8311 67.2411 72.4736 66.5986C73.1162 65.956 73.4375 65.1757 73.4375 64.2577C73.4375 63.3398 73.1162 62.5595 72.4736 61.9169L67.2871 56.7763L71.4639 52.5995L76.6504 57.7861C77.293 58.4286 78.0579 58.7499 78.9453 58.7499ZM86.8857 32.3124L60.9072 6.288L37.7744 13.9989L29.7881 29.9716C29.6351 30.247 29.528 30.6295 29.4668 31.1191C29.4056 31.6086 29.375 32.0064 29.375 32.3124C29.375 33.108 29.6657 33.7965 30.2471 34.3778C30.8285 34.9592 31.5169 35.2499 32.3125 35.2499C33.1387 35.2499 33.9036 35.0969 34.6074 34.7909C35.3112 34.4849 35.9232 34.0719 36.4434 33.5517C36.9635 33.0315 37.3919 32.4042 37.7285 31.6698C38.0651 30.9355 38.2181 30.1705 38.1875 29.3749C38.1875 27.7532 38.4935 26.2385 39.1055 24.831C39.7174 23.4234 40.5589 22.1689 41.6299 21.0673C42.7008 19.9657 43.9401 19.1243 45.3477 18.5429C46.7552 17.9615 48.2852 17.6555 49.9375 17.6249C50.4271 17.6249 50.9473 17.6708 51.498 17.7626C52.0488 17.8544 52.6302 17.9768 53.2422 18.1298C53.8542 18.2828 54.3896 18.497 54.8486 18.7724C55.3076 19.0478 55.7513 19.3691 56.1797 19.7362L77.8438 41.4003L86.8857 32.3124Z" fill="#1E6CB6"/>
</g>
<defs>
<clipPath id="clip0_102_2095">
<rect width="94" height="94" fill="white"/>
</clipPath>
</defs>
</svg>
